<?xml version="1.0" standalone="no"?><!DOCTYPE svg PUBLIC "-//W3C//DTD SVG 1.1//EN" "http://www.w3.org/Graphics/SVG/1.1/DTD/svg11.dtd"><svg t="1607739762846" class="icon" viewBox="0 0 1024 1024" version="1.1" xmlns="http://www.w3.org/2000/svg" p-id="4356" xmlns:xlink="http://www.w3.org/1999/xlink" width="200" height="200"><defs><style type="text/css"></style></defs><path d="M985.782857 73.252571H38.217143A38.253714 38.253714 0 0 0 0 111.469714v685.165715a38.290286 38.290286 0 0 0 38.217143 38.326857h170.934857l52.260571 115.565714a38.217143 38.217143 0 0 0 54.491429 17.042286l220.452571-132.608h449.426286A38.290286 38.290286 0 0 0 1024 796.635429V111.469714a38.253714 38.253714 0 0 0-38.217143-38.217143z m-38.180571 685.165715H525.787429a38.070857 38.070857 0 0 0-19.675429 5.449143l-192.804571 115.968-44.726858-98.962286a38.144 38.144 0 0 0-34.779428-22.454857h-157.257143V149.796571h871.204571z" p-id="4357" fill="#d4237a"></path><path d="M512 522.678857a60.598857 60.598857 0 1 0-60.598857-60.452571A60.672 60.672 0 0 0 512 522.678857z" p-id="4358" fill="#d4237a"></path><path d="M752.384 522.678857a60.635429 60.635429 0 0 0 60.562286-60.745143 60.598857 60.598857 0 1 0-60.562286 60.745143z" p-id="4359" fill="#d4237a"></path><path d="M271.616 522.678857a60.598857 60.598857 0 1 0-60.562286-60.452571 60.672 60.672 0 0 0 60.562286 60.452571z" p-id="4360" fill="#d4237a"></path></svg>