<?xml version="1.0" standalone="no"?><!DOCTYPE svg PUBLIC "-//W3C//DTD SVG 1.1//EN" "http://www.w3.org/Graphics/SVG/1.1/DTD/svg11.dtd"><svg t="1607584258937" class="icon" viewBox="0 0 1024 1024" version="1.1" xmlns="http://www.w3.org/2000/svg" p-id="2733" xmlns:xlink="http://www.w3.org/1999/xlink" width="200" height="200"><defs><style type="text/css"></style></defs><path d="M890.4 411L727.1 180.4c-4.2-5.8-10.9-9.4-18.1-9.4H315c-7.2 0-13.9 3.5-18.1 9.4L133.6 411c-5.9 8.4-5.3 19.8 1.5 27.5l360.4 406.9c4.3 4.7 10.3 7.5 16.6 7.5 6.3 0 12.4-2.7 16.6-7.5L889 438.5c6.7-7.7 7.4-19.1 1.4-27.5zM326.5 215.4h371L832 405.2H597.8L512 219.8l-85.8 185.3H192l134.5-189.7zM189.2 432.9h224.1l-4.3 9.3L509.1 794 189.2 432.9z m325.7 361.2l100.1-352-4.3-9.3h224.1L514.9 794.1z" fill="#34ADE5" p-id="2734"></path></svg>