<?xml version="1.0" standalone="no"?><!DOCTYPE svg PUBLIC "-//W3C//DTD SVG 1.1//EN" "http://www.w3.org/Graphics/SVG/1.1/DTD/svg11.dtd"><svg t="1607677143224" class="icon" viewBox="0 0 1024 1024" version="1.1" xmlns="http://www.w3.org/2000/svg" p-id="3771" xmlns:xlink="http://www.w3.org/1999/xlink" width="200" height="200"><defs><style type="text/css"></style></defs><path d="M980.15232 282.68544L807.3216 84.56192c-12.8768-14.79168-30.76608-22.36416-48.94208-20.7104a54.87616 54.87616 0 0 0-5.0176-0.256h-92.0832l-6.44608 4.1216c-34.10944 21.74976-77.6448 33.73056-122.56256 33.73056-44.92288 0-88.44288-11.9808-122.55232-33.73056l-6.45632-4.1216H311.17312c-23.20384-0.07168-44.544 14.54592-55.49056 37.99552L84.84864 297.43616C73.05728 310.95808 66.56 328.92928 66.56 348.05248c0 19.11296 6.49728 37.0944 18.28864 50.6112l124.81536 143.08864c10.30144 11.86816 23.93088 19.18976 38.48192 20.64896v345.81504c0 39.8336 28.27264 72.26368 63.03232 72.26368h442.18368c34.75456 0 63.04256-32.43008 63.04256-72.26368v-360.51968c14.70976-1.35168 28.5184-8.69888 38.92736-20.70528l124.83584-143.08864c24.31488-27.904 24.31488-73.31328-0.01536-101.21728z m-40.29952 55.02976l-124.8256 143.09888a5.0176 5.0176 0 0 1-3.81952 1.81248 5.0176 5.0176 0 0 1-3.75296-1.70496l-48.0512-51.9936v479.30368c0 3.83488-2.7136 6.93248-6.05696 6.93248H311.17312c-3.34336 0-6.05184-3.0976-6.05184-6.93248V445.97248l-47.67232 49.76128a5.0176 5.0176 0 0 1-3.68128 1.6384 4.9664 4.9664 0 0 1-3.80928-1.80736L125.13792 352.47104a6.64064 6.64064 0 0 1-1.59744-4.41856c0-1.18272 0.27648-2.90816 1.59744-4.4288L297.59488 145.92l5.50912-5.66784 2.46272-6.99392c0.92672-2.62144 3.14368-4.34688 5.61152-4.352H388.7104c41.69728 24.79104 91.15136 37.84704 143.55968 37.84704 52.41344 0 101.86752-13.056 143.5648-37.84704h77.48608c0.31744 0.01536 0.61952 0.06656 0.91648 0.11776l4.07552 0.6656 4.05504-0.6656c1.29536-0.20992 3.0208-0.16896 4.6592 1.7152l172.83072 198.12352a6.93248 6.93248 0 0 1-0.00512 8.85248z" p-id="3772" fill="#d4237a"></path><path d="M502.30784 282.49088c-15.73376 15.32928-14.72 42.19904 0.5632 57.50272 15.70304 15.70304 42.5728 15.60576 58.05568-0.22016 15.73376-16.1024 15.90272-43.1872-0.4352-58.05056-18.35008-16.7168-41.90208-15.08352-58.18368 0.768z m40.89856 39.54688c-5.61152 5.81632-15.39584 5.96992-21.57056 0.31232-6.5536-5.93408-6.90688-15.82592-0.8448-22.0672 5.9136-6.09792 15.06816-6.30784 21.34528-0.48128 6.61504 6.15424 7.0912 15.98464 1.07008 22.23616z" p-id="3773" fill="#d4237a"></path><path d="M612.12672 262.20032c-30.83264 0.59392-122.09664 0.98304-136.90368-0.19456-12.79488-0.95744-27.1616-2.6368-38.97344 3.49696-15.86176 8.2688-11.42272 28.20608-11.88864 42.75712-0.64 19.83488-0.0256 414.06464 0.01024 485.00224 0 5.44768 1.3824 22.84544 21.94944 22.49728 55.54688-0.98304 110.99648 0.22016 166.5792 0.14848 19.3536 0.00512 23.96672-4.85888 23.9872-24.27392 0.04096-96.13312-0.41984-471.64416-0.06144-486.8864 0.4352-19.85024 1.9712-43.06944-24.69888-42.5472z m-9.088 57.04192c0.16384 37.23776 0.13312 74.48064 0.14336 111.7184-0.04096 108.43136-0.11264 216.87296-0.19456 325.29408 0 19.46112-6.30272 25.9072-25.44128 25.92768-31.92832 0.07168-63.86688 0.11264-95.7952-0.04608-14.41792-0.09728-20.77696-5.22752-23.02464-17.1008 15.09376-0.57856 30.32576-1.13152 45.52704-1.83808 11.17184-0.50688 18.28864-9.46176 13.09696-17.50528-2.52416-3.8912-8.79104-7.14752-13.62432-7.4496-14.84288-1.07008-29.7984-0.5632-45.312-0.68096-0.22016-3.56352-0.3072-44.01664-0.37888-45.90592 15.29344-0.64512 30.15168-1.5104 44.98432-1.86368 6.97344-0.17408 12.49792-2.0736 15.05792-8.97536 3.04128-8.14592-3.01568-16.03584-13.17888-16.384-15.26272-0.47104-30.57152-0.22528-46.90432-0.29696l-0.90112-34.75456s75.83744-3.92192 79.15008-4.06528c10.15808-0.44544 16.09728-5.248 15.232-13.21984-0.94208-8.73984-6.82496-12.24192-15.26784-12.25728-21.98528 0.03584-43.94496-0.03584-65.85344-0.10752-3.64032 0.00512-7.28064-0.05632-11.55072-0.10752-0.23552-3.52256-0.65024-17.44384-0.76288-19.03616 14.76096-0.97792 29.25568-0.44544 43.75552-1.13664 10.98752-0.49664 16.92672-4.51584 17.06496-12.43136 0.14848-8.13056-6.25664-13.40416-17.5104-13.01504-13.96736 0.47104-28.38528 1.39264-43.04896 2.44736-0.18432-3.24608-0.64-47.20128-0.64-47.85664 16.39936-0.9728 31.29856-1.97632 46.208-2.70848 8.26368-0.42496 14.32576-3.23584 14.85312-12.43648 0.49152-8.24832-4.7104-13.31712-15.10912-13.056-14.94528 0.38912-29.85472 1.8944-45.4656 2.95936 0.0768-6.87616 0.0512-14.84288 0.0512-15.96416 15.28832-0.96256 29.89568-2.29888 44.48768-3.0464 11.20256-0.56832 16.45056-4.79744 16.11264-13.39904-0.2816-7.48544-6.44608-12.60544-16.32768-12.16-14.59712 0.69632-29.13792 2.59072-43.87328 3.77856-1.9968-113.93024-17.63328-144.88064 19.82464-145.52576 34.89792-0.6144 69.83168-0.256 104.76032 0 13.11744 0.09728 19.81952 7.81824 19.85536 22.20544z" p-id="3774" fill="#d4237a"></path></svg>