<?xml version="1.0" standalone="no"?><!DOCTYPE svg PUBLIC "-//W3C//DTD SVG 1.1//EN" "http://www.w3.org/Graphics/SVG/1.1/DTD/svg11.dtd"><svg t="1607657782323" class="icon" viewBox="0 0 1024 1024" version="1.1" xmlns="http://www.w3.org/2000/svg" p-id="3288" xmlns:xlink="http://www.w3.org/1999/xlink" width="200" height="200"><defs><style type="text/css"></style></defs><path d="M216.393168 840.899137s-149.892364 22.540826-45.461461 113.447234c0 0 72.130643 47.542152 204.370156 22.738987v45.461461h45.46146v-45.461461s172.812999 24.241709 264.099216-181.812816c0 0 83.970769-17.851013 152.154704 42.257856 0 0 60.108869 12.203422 83.3928-42.076209 0 0 6.209048-21.038104-22.722474-22.738987 0 0-10.898861 25.364622-46.584374 28.171904 0 0-89.040391-49.589817-157.785782-50.894377 0 0 98.056721-296.977446 0-363.295364 0 0-93.350395 173.572617-181.647682 158.925208 0 0 40.771648-151.774895-11.823612-252.655412 0 0 103.869447-217.894651-79.099309-292.452768-31.160834-3.583413-17.454691 21.962856 8.851196 34.364439 11.641965 5.44943 147.068569 70.066465 26.289374 239.874021 0 0-14.465761-18.775765-10.7007-48.8302 0 0-2.443987-49.408169-46.402726-55.798865-26.867343-3.187091-48.268743 11.27867-55.782352 34.5626 0 0-24.43987 56.921778 37.568043 87.917478 0 0-130.934952 29.674626-188.418186 8.818169-38.1295-13.706143-67.622478-3.187091-82.071725 9.396139-14.465761 12.58323-15.786835 32.696583 3.5669 24.423357 19.337221-8.256713 33.802982-16.529939 60.290517-12.021774 26.487535 4.508165 24.984813 13.144687 178.444077 17.471204 0 0 62.371209 37.931339 48.846713 139.55496-6.952152 52.595261-1.321074 114.025204-48.846713 155.539956 0 0-163.037051-7.1338-204.370156 90.906408 0.379809 0.561456 68.365582 67.061021 68.365582 114.206852z" p-id="3289" fill="#d4237a"></path></svg>